# Blender 3.6.0
# www.blender.org
mtllib Board.mtl
o Board
v 1.500000 0.050000 -2.000000
v 1.500000 -0.050000 -2.000000
v 1.500000 0.050000 2.000000
v 1.500000 -0.050000 2.000000
v -1.500000 0.050000 -2.000000
v -1.500000 -0.050000 -2.000000
v -1.500000 0.050000 2.000000
v -1.500000 -0.050000 2.000000
vn -0.0000 1.0000 -0.0000
vn -0.0000 -0.0000 1.0000
vn -1.0000 -0.0000 -0.0000
vn -0.0000 -1.0000 -0.0000
vn 1.0000 -0.0000 -0.0000
vn -0.0000 -0.0000 -1.0000
vt 1.000000 0.994792
vt 0.000000 1.000000
vt 0.000000 0.005208
vt 0.999306 0.000000
vt 1.000000 0.000000
vt 1.000000 0.035417
vt -0.000000 0.035417
vt -0.000000 0.000000
vt 0.047222 0.000000
vt 0.047222 1.000000
vt 1.000000 1.000000
vt 0.952778 1.000000
vt 0.952778 0.000000
vt 0.000000 0.964583
vt 1.000000 0.964583
s 0
usemtl Board
f 1/1/1 5/2/1 7/3/1 3/4/1
f 4/5/2 3/6/2 7/7/2 8/8/2
f 8/8/3 7/9/3 5/10/3 6/2/3
f 6/11/4 2/2/4 4/8/4 8/5/4
f 2/11/5 1/12/5 3/13/5 4/5/5
f 6/2/6 5/14/6 1/15/6 2/11/6
